<?xml version="1.0" standalone="no"?>
<!DOCTYPE svg PUBLIC "-//W3C//DTD SVG 20010904//EN"
 "http://www.w3.org/TR/2001/REC-SVG-20010904/DTD/svg10.dtd">
<svg version="1.0" xmlns="http://www.w3.org/2000/svg"
 width="447.000000pt" height="447.000000pt" viewBox="0 0 447.000000 447.000000"
 preserveAspectRatio="xMidYMid meet">
<metadata>
Created by potrace 1.16, written by Peter Selinger 2001-2019
</metadata>
<g transform="translate(0.000000,447.000000) scale(0.100000,-0.100000)"
fill="#000000" stroke="none">
<path d="M2834 3111 c-62 -27 -85 -118 -41 -159 77 -73 207 -29 207 70 0 45
-47 89 -100 94 -25 2 -55 0 -66 -5z"/>
<path d="M2273 2980 c-23 -14 -34 -29 -39 -56 -6 -31 -3 -40 23 -66 56 -55
184 -37 212 30 15 35 2 73 -31 96 -33 23 -124 21 -165 -4z"/>
<path d="M875 2860 c-151 -22 -289 -87 -425 -201 -68 -57 -154 -165 -146 -185
3 -8 0 -16 -6 -20 -7 -5 -8 -2 -3 7 6 10 5 11 -3 4 -7 -6 -22 -42 -36 -80 -27
-80 -28 -185 -3 -246 17 -39 88 -108 136 -134 40 -20 115 -30 216 -28 106 2
126 6 218 42 107 41 207 105 304 195 81 76 100 89 90 61 -13 -31 24 -116 68
-160 59 -59 125 -79 250 -73 78 3 102 8 157 36 113 55 239 204 269 317 17 62
19 64 114 104 50 21 109 48 133 61 24 12 45 20 48 17 3 -3 -1 -34 -10 -69 -8
-35 -20 -94 -26 -133 -10 -72 -45 -234 -52 -240 -8 -7 -154 -98 -273 -170
-275 -166 -417 -280 -463 -372 -33 -65 -39 -141 -14 -190 47 -92 140 -137 271
-132 271 13 536 334 645 786 16 65 22 76 64 110 26 20 94 85 152 144 l105 106
1 -81 c0 -107 23 -154 91 -187 64 -32 198 -32 328 -1 478 113 895 171 1237
172 109 0 131 7 101 31 -22 19 -566 20 -708 1 -55 -7 -131 -18 -170 -23 -38
-5 -90 -11 -115 -14 -25 -3 -92 -14 -150 -25 -409 -75 -457 -65 -448 98 4 60
13 97 42 167 55 132 62 159 48 189 -10 22 -18 26 -55 26 -50 0 -58 -8 -151
-133 -61 -84 -320 -356 -330 -347 -3 3 4 42 15 85 56 221 61 300 24 335 -40
38 -113 25 -268 -49 -70 -34 -131 -61 -135 -61 -4 0 -7 27 -8 59 0 47 -6 68
-27 100 -51 77 -188 123 -303 102 -139 -26 -246 -108 -363 -281 -144 -211
-339 -372 -521 -429 -129 -41 -210 -40 -275 4 -20 14 -41 22 -47 19 -7 -4 -8
-2 -4 5 4 6 2 27 -5 45 -19 53 2 130 60 218 56 85 103 132 183 182 77 49 101
57 181 63 98 8 140 -26 107 -88 -9 -16 -7 -21 13 -30 37 -17 134 25 165 71 28
41 26 96 -5 139 -44 60 -176 97 -288 81z m951 -157 c33 -21 54 -64 54 -107 0
-34 -2 -36 -56 -52 -79 -23 -159 -7 -216 44 -40 35 -12 106 51 130 35 13 139
4 167 -15z m-330 -208 c8 -13 38 -35 66 -49 47 -23 61 -25 164 -23 63 1 114 1
114 0 0 -15 -78 -128 -101 -148 -46 -38 -123 -75 -173 -81 -56 -8 -132 23
-146 61 -16 42 -14 117 5 175 32 98 43 108 71 65z m-1236 -189 c0 -3 -4 -8
-10 -11 -5 -3 -10 -1 -10 4 0 6 5 11 10 11 6 0 10 -2 10 -4z m-1 -113 c0 -25
-1 -26 -9 -8 -12 27 -12 35 0 35 6 0 10 -12 9 -27z m63 -113 c13 -14 37 -35
54 -48 l29 -24 -30 18 c-42 23 -84 64 -101 96 -20 39 -17 48 5 13 10 -16 29
-41 43 -55z m1802 -130 c-22 -64 -87 -197 -126 -257 -47 -73 -151 -177 -212
-212 -95 -55 -191 -51 -216 9 -34 81 98 210 435 424 72 46 131 83 132 82 1 -1
-5 -22 -13 -46z"/>
</g>
</svg>
