<?xml version="1.0" standalone="no"?>
<!DOCTYPE svg PUBLIC "-//W3C//DTD SVG 20010904//EN"
 "http://www.w3.org/TR/2001/REC-SVG-20010904/DTD/svg10.dtd">
<svg version="1.0" xmlns="http://www.w3.org/2000/svg"
 width="970.000000pt" height="979.000000pt" viewBox="0 0 970.000000 979.000000"
 preserveAspectRatio="xMidYMid meet">

<g transform="translate(0.000000,979.000000) scale(0.100000,-0.100000)"
fill="#000000" stroke="none">
<path d="M5705 9270 c-641 -33 -1137 -233 -1650 -665 -273 -231 -617 -611
-717 -792 -22 -40 -42 -73 -45 -73 -3 0 -44 24 -91 53 -340 209 -759 371 -957
371 -145 -1 -235 -55 -397 -239 -545 -619 -884 -1537 -979 -2650 -46 -537 105
-1380 371 -2075 102 -268 279 -636 371 -772 305 -452 666 -765 1019 -882 172
-57 259 -69 455 -63 199 6 297 26 530 107 122 42 161 52 208 50 33 -1 83 6
113 16 32 10 58 13 63 8 4 -5 34 -42 66 -83 71 -88 189 -192 303 -268 85 -56
293 -167 368 -196 23 -9 52 -30 64 -46 32 -46 101 -89 167 -105 44 -10 96 -37
203 -106 230 -149 380 -217 575 -263 135 -31 381 -30 525 2 351 78 706 272
1053 575 198 174 518 577 739 931 343 551 609 1188 687 1645 127 738 123 1392
-10 2005 -47 212 -98 291 -229 354 -47 22 -69 26 -145 26 -134 -1 -160 -16
-559 -340 -186 -151 -340 -275 -341 -275 -1 0 61 190 138 423 l140 422 1 100
c1 89 -2 107 -26 157 -33 70 -106 146 -173 178 -56 27 -193 40 -243 22 l-29
-10 -12 179 c-47 692 -225 1229 -552 1665 -147 197 -499 530 -619 587 -75 36
-130 40 -385 27z m207 -820 c335 -313 523 -697 598 -1226 23 -165 45 -543 35
-619 l-6 -54 -117 -62 c-417 -220 -737 -434 -1092 -729 -253 -210 -451 -440
-706 -817 -48 -70 -97 -139 -110 -153 -41 -45 -223 -361 -310 -537 -47 -95
-87 -173 -89 -173 -2 0 -16 5 -31 10 -15 6 -102 33 -193 61 -194 59 -283 99
-367 162 -138 105 -226 278 -270 532 -25 146 -30 436 -10 590 52 394 158 799
313 1195 75 193 263 577 360 738 124 205 422 536 643 714 372 299 762 453
1160 457 l95 1 97 -90z"/>
</g>
</svg>
